<svg width="14" height="20" viewBox="0 0 14 20" fill="none" xmlns="http://www.w3.org/2000/svg">
<path d="M9.93927 6.663C10.8055 6.637 11.6276 6.27461 12.2312 5.65267C12.8347 5.03073 13.1723 4.19815 13.1723 3.3315C13.1723 2.46485 12.8347 1.63227 12.2312 1.01033C11.6276 0.388391 10.8055 0.025998 9.93927 0H3.27527C2.40901 0.025998 1.58693 0.388391 0.983379 1.01033C0.379824 1.63227 0.042254 2.46485 0.042254 3.3315C0.042254 4.19815 0.379824 5.03073 0.983379 5.65267C1.58693 6.27461 2.40901 6.637 3.27527 6.663C2.40143 6.67814 1.5685 7.0359 0.95589 7.65921C0.343277 8.28253 0 9.12153 0 9.9955C0 10.8695 0.343277 11.7085 0.95589 12.3318C1.5685 12.9551 2.40143 13.3129 3.27527 13.328C2.4057 13.3493 1.57892 13.7097 0.971434 14.3323C0.363951 14.9548 0.0239096 15.7902 0.0239096 16.66C0.0239096 17.5298 0.363951 18.3652 0.971434 18.9877C1.57892 19.6103 2.4057 19.9707 3.27527 19.992C4.15898 19.9915 5.00633 19.6401 5.63112 19.0151C6.2559 18.3902 6.60701 17.5427 6.60727 16.659V6.663H9.93927Z" fill="#9A157E"/>
<path d="M9.93927 13.327C11.7795 13.327 13.2713 11.8352 13.2713 9.99496C13.2713 8.15475 11.7795 6.66296 9.93927 6.66296C8.09906 6.66296 6.60727 8.15475 6.60727 9.99496C6.60727 11.8352 8.09906 13.327 9.93927 13.327Z" fill="#9A157E"/>
</svg>
