<svg width="32" height="32" viewBox="0 0 32 32" fill="none" xmlns="http://www.w3.org/2000/svg">
<path d="M28.6316 0H5.05263C3.19495 0 1.68421 1.794 1.68421 4V14H5.05263V8L15.8316 17.6C16.1232 17.8593 16.4778 17.9995 16.8421 17.9995C17.2065 17.9995 17.561 17.8593 17.8526 17.6L28.6316 8V26H15.1579V30H28.6316C30.4893 30 32 28.206 32 26V4C32 1.794 30.4893 0 28.6316 0ZM16.8421 13.5L6.17432 4H27.5099L16.8421 13.5Z" fill="#9A157E"/>
<path d="M0 16H11.7895V20H0V16ZM3.36842 22H13.4737V26H3.36842V22ZM8.42105 28H15.1579V32H8.42105V28Z" fill="#9A157E"/>
</svg>
